<?xml version="1.0" encoding="UTF-8"?>
<svg width="20px" height="20px" viewBox="0 0 20 20" version="1.1" xmlns="http://www.w3.org/2000/svg" xmlns:xlink="http://www.w3.org/1999/xlink">
    <title>Shape Copy 2@3x</title>
    <g id="SNET-website---V3.0" stroke="none" stroke-width="1" fill="none" fill-rule="evenodd">
        <g id="V1_a" transform="translate(-1088.000000, -38.000000)" fill="#FFFFFF" fill-rule="nonzero">
            <g id="Main_Banner/Expand2" transform="translate(-180.000000, 0.000000)">
                <g id="Group-6" transform="translate(-296.222222, -263.500000)">
                    <g id="New_main_menu" transform="translate(743.222222, 283.500000)">
                        <g id="Group-4" transform="translate(752.000000, 16.000000)">
                            <g id="apps_FILL0_wght300_GRAD0_opsz48" transform="translate(69.000000, 2.000000)">
                                <path d="M1.80327869,3.57377049 C1.30054645,3.57377049 0.87431694,3.40437158 0.524590164,3.06557377 C0.174863388,2.72677596 0,2.30601093 0,1.80327869 C0,1.30054645 0.174863388,0.87431694 0.524590164,0.524590164 C0.87431694,0.174863388 1.30054645,0 1.80327869,0 C2.30601093,0 2.72677596,0.174863388 3.06557377,0.524590164 C3.40437158,0.87431694 3.57377049,1.30054645 3.57377049,1.80327869 C3.57377049,2.30601093 3.40437158,2.72677596 3.06557377,3.06557377 C2.72677596,3.40437158 2.30601093,3.57377049 1.80327869,3.57377049 Z M10,20 C9.49726776,20 9.07650273,19.8251366 8.73770492,19.4754098 C8.3989071,19.1256831 8.2295082,18.6994536 8.2295082,18.1967213 C8.2295082,17.6939891 8.3989071,17.273224 8.73770492,16.9344262 C9.07650273,16.5956284 9.49726776,16.4262295 10,16.4262295 C10.5027322,16.4262295 10.9234973,16.5956284 11.2622951,16.9344262 C11.6010929,17.273224 11.7704918,17.6939891 11.7704918,18.1967213 C11.7704918,18.6994536 11.6010929,19.1256831 11.2622951,19.4754098 C10.9234973,19.8251366 10.5027322,20 10,20 Z M1.80327869,20 C1.30054645,20 0.87431694,19.8251366 0.524590164,19.4754098 C0.174863388,19.1256831 0,18.6994536 0,18.1967213 C0,17.6939891 0.174863388,17.273224 0.524590164,16.9344262 C0.87431694,16.5956284 1.30054645,16.4262295 1.80327869,16.4262295 C2.30601093,16.4262295 2.72677596,16.5956284 3.06557377,16.9344262 C3.40437158,17.273224 3.57377049,17.6939891 3.57377049,18.1967213 C3.57377049,18.6994536 3.40437158,19.1256831 3.06557377,19.4754098 C2.72677596,19.8251366 2.30601093,20 1.80327869,20 Z M1.80327869,11.7704918 C1.30054645,11.7704918 0.87431694,11.6010929 0.524590164,11.2622951 C0.174863388,10.9234973 0,10.5027322 0,10 C0,9.49726776 0.174863388,9.07650273 0.524590164,8.73770492 C0.87431694,8.3989071 1.30054645,8.2295082 1.80327869,8.2295082 C2.30601093,8.2295082 2.72677596,8.3989071 3.06557377,8.73770492 C3.40437158,9.07650273 3.57377049,9.49726776 3.57377049,10 C3.57377049,10.5027322 3.40437158,10.9234973 3.06557377,11.2622951 C2.72677596,11.6010929 2.30601093,11.7704918 1.80327869,11.7704918 Z M10,11.7704918 C9.49726776,11.7704918 9.07650273,11.6010929 8.73770492,11.2622951 C8.3989071,10.9234973 8.2295082,10.5027322 8.2295082,10 C8.2295082,9.49726776 8.3989071,9.07650273 8.73770492,8.73770492 C9.07650273,8.3989071 9.49726776,8.2295082 10,8.2295082 C10.5027322,8.2295082 10.9234973,8.3989071 11.2622951,8.73770492 C11.6010929,9.07650273 11.7704918,9.49726776 11.7704918,10 C11.7704918,10.5027322 11.6010929,10.9234973 11.2622951,11.2622951 C10.9234973,11.6010929 10.5027322,11.7704918 10,11.7704918 Z M18.1967213,3.57377049 C17.6939891,3.57377049 17.273224,3.40437158 16.9344262,3.06557377 C16.5956284,2.72677596 16.4262295,2.30601093 16.4262295,1.80327869 C16.4262295,1.30054645 16.5956284,0.87431694 16.9344262,0.524590164 C17.273224,0.174863388 17.6939891,0 18.1967213,0 C18.6994536,0 19.1256831,0.174863388 19.4754098,0.524590164 C19.8251366,0.87431694 20,1.30054645 20,1.80327869 C20,2.30601093 19.8251366,2.72677596 19.4754098,3.06557377 C19.1256831,3.40437158 18.6994536,3.57377049 18.1967213,3.57377049 Z M10,3.57377049 C9.49726776,3.57377049 9.07650273,3.40437158 8.73770492,3.06557377 C8.3989071,2.72677596 8.2295082,2.30601093 8.2295082,1.80327869 C8.2295082,1.30054645 8.3989071,0.87431694 8.73770492,0.524590164 C9.07650273,0.174863388 9.49726776,0 10,0 C10.5027322,0 10.9234973,0.174863388 11.2622951,0.524590164 C11.6010929,0.87431694 11.7704918,1.30054645 11.7704918,1.80327869 C11.7704918,2.30601093 11.6010929,2.72677596 11.2622951,3.06557377 C10.9234973,3.40437158 10.5027322,3.57377049 10,3.57377049 Z M18.1967213,11.7704918 C17.6939891,11.7704918 17.273224,11.6010929 16.9344262,11.2622951 C16.5956284,10.9234973 16.4262295,10.5027322 16.4262295,10 C16.4262295,9.49726776 16.5956284,9.07650273 16.9344262,8.73770492 C17.273224,8.3989071 17.6939891,8.2295082 18.1967213,8.2295082 C18.6994536,8.2295082 19.1256831,8.3989071 19.4754098,8.73770492 C19.8251366,9.07650273 20,9.49726776 20,10 C20,10.5027322 19.8251366,10.9234973 19.4754098,11.2622951 C19.1256831,11.6010929 18.6994536,11.7704918 18.1967213,11.7704918 Z M18.1967213,20 C17.6939891,20 17.273224,19.8251366 16.9344262,19.4754098 C16.5956284,19.1256831 16.4262295,18.6994536 16.4262295,18.1967213 C16.4262295,17.6939891 16.5956284,17.273224 16.9344262,16.9344262 C17.273224,16.5956284 17.6939891,16.4262295 18.1967213,16.4262295 C18.6994536,16.4262295 19.1256831,16.5956284 19.4754098,16.9344262 C19.8251366,17.273224 20,17.6939891 20,18.1967213 C20,18.6994536 19.8251366,19.1256831 19.4754098,19.4754098 C19.1256831,19.8251366 18.6994536,20 18.1967213,20 Z" id="Shape-Copy-2"></path>
                            </g>
                        </g>
                    </g>
                </g>
            </g>
        </g>
    </g>
</svg>